<svg width="30" height="30" viewBox="0 0 30 30" fill="none" xmlns="http://www.w3.org/2000/svg">
<g clip-path="url(#clip0_2_1690)">
<path d="M8.01068 25.6939L8.49547 25.9362C10.5154 27.1482 12.7778 27.7138 15.0401 27.7138C22.1504 27.7138 27.9678 21.8963 27.9678 14.7861C27.9678 11.3926 26.5943 8.07986 24.1703 5.65591C21.7464 3.23197 18.5144 1.8584 15.0401 1.8584C7.92988 1.8584 2.11242 7.67586 2.19321 14.8669C2.19321 17.2908 2.9204 19.634 4.13237 21.6539L4.45556 22.1387L3.16279 26.9058L8.01068 25.6939Z" fill="#00E676"/>
<path d="M25.5438 4.3631C22.7967 1.53517 18.9992 0 15.1209 0C6.87946 0 0.254016 6.70625 0.334814 14.8669C0.334814 17.4524 1.062 19.9571 2.27397 22.2195L0.173218 29.8953L8.01064 27.8754C10.1922 29.0873 12.6161 29.6529 15.0401 29.6529C23.2007 29.6529 29.8261 22.9467 29.8261 14.7861C29.8261 10.827 28.291 7.11024 25.5438 4.3631ZM15.1209 27.1482C12.9393 27.1482 10.7578 26.5826 8.89942 25.4514L8.41463 25.209L3.72834 26.421L4.94031 21.8155L4.61712 21.3307C1.062 15.594 2.75876 7.99902 8.57623 4.4439C14.3937 0.888779 21.9079 2.58554 25.463 8.40301C29.0182 14.2205 27.3214 21.7347 21.5039 25.2898C19.6456 26.5018 17.3832 27.1482 15.1209 27.1482ZM22.2311 18.1796L21.3423 17.7756C21.3423 17.7756 20.0496 17.21 19.2416 16.806C19.1608 16.806 19.08 16.7252 18.9992 16.7252C18.7568 16.7252 18.5952 16.806 18.4336 16.8868C18.4336 16.8868 18.3528 16.9676 17.2216 18.2604C17.1408 18.422 16.9792 18.5028 16.8176 18.5028H16.7368C16.656 18.5028 16.4944 18.422 16.4136 18.3412L16.0097 18.1796C15.1209 17.7756 14.3129 17.2908 13.6665 16.6444C13.5049 16.4828 13.2625 16.3212 13.1009 16.1596C12.5353 15.594 11.9697 14.9477 11.5658 14.2205L11.485 14.0589C11.4042 13.9781 11.4042 13.8973 11.3234 13.7357C11.3234 13.5741 11.3234 13.4125 11.4042 13.3317C11.4042 13.3317 11.7274 12.9277 11.9697 12.6853C12.1313 12.5237 12.2121 12.2813 12.3737 12.1197C12.5353 11.8773 12.6161 11.5541 12.5353 11.3117C12.4545 10.9078 11.485 8.7262 11.2426 8.24141C11.081 7.99902 10.9194 7.91822 10.677 7.83742H10.4346C10.273 7.83742 10.0306 7.83742 9.7882 7.83742C9.6266 7.83742 9.465 7.91822 9.30341 7.91822L9.22261 7.99902C9.06102 8.07981 8.89942 8.24141 8.73782 8.32221C8.57623 8.48381 8.49543 8.6454 8.33383 8.807C7.76824 9.53418 7.44505 10.423 7.44505 11.3117C7.44505 11.9581 7.60665 12.6045 7.84904 13.1701L7.92984 13.4125C8.65702 14.9477 9.6266 16.3212 10.9194 17.5332L11.2426 17.8564C11.485 18.0988 11.7274 18.2604 11.889 18.5028C13.5857 19.9571 15.5249 21.0075 17.7064 21.5731C17.9488 21.6539 18.272 21.6539 18.5144 21.7347C18.7568 21.7347 19.08 21.7347 19.3224 21.7347C19.7264 21.7347 20.2112 21.5731 20.5344 21.4115C20.7767 21.2499 20.9383 21.2499 21.0999 21.0883L21.2615 20.9267C21.4231 20.7651 21.5847 20.6843 21.7463 20.5227C21.9079 20.3611 22.0695 20.1995 22.1503 20.0379C22.3119 19.7147 22.3927 19.3108 22.4735 18.9068C22.4735 18.7452 22.4735 18.5028 22.4735 18.3412C22.4735 18.3412 22.3927 18.2604 22.2311 18.1796Z" fill="white"/>
</g>
<defs>
<clipPath id="clip0_2_1690">
<rect width="30" height="30" fill="white" transform="translate(-0.000854492)"/>
</clipPath>
</defs>
</svg>
