<svg width="30" height="30" viewBox="0 0 30 30" fill="none" xmlns="http://www.w3.org/2000/svg">
<g clip-path="url(#clip0_2_1686)">
<path d="M14.9995 30C23.2838 30 29.9995 23.2843 29.9995 15C29.9995 6.71572 23.2838 0 14.9995 0C6.71524 0 -0.000488281 6.71572 -0.000488281 15C-0.000488281 23.2843 6.71524 30 14.9995 30Z" fill="#2787F5"/>
<path d="M17.1625 7.95459H12.8365C8.88848 7.95459 7.95361 8.88945 7.95361 12.8375V17.1635C7.95361 21.1115 8.88848 22.0464 12.8365 22.0464H17.1625C21.1105 22.0464 22.0454 21.1115 22.0454 17.1635V12.8375C22.0454 8.88945 21.1006 7.95459 17.1625 7.95459ZM19.3305 18.0087H18.3051C17.9172 18.0087 17.7979 17.7005 17.1019 16.9944C16.4951 16.4085 16.2268 16.3282 16.0765 16.3282C15.8676 16.3282 15.8078 16.3868 15.8078 16.6763V17.6012C15.8078 17.8499 15.7281 17.999 15.0719 17.999C13.9879 17.999 12.7847 17.3428 11.9392 16.1193C10.6662 14.3293 10.3182 12.9866 10.3182 12.7083C10.3182 12.5592 10.3768 12.42 10.6662 12.42H11.6916C11.9503 12.42 12.0496 12.5393 12.1489 12.8179C12.6561 14.2798 13.5016 15.5627 13.8481 15.5627C13.9773 15.5627 14.0371 15.5041 14.0371 15.1748V13.6631C13.9973 12.967 13.6293 12.9072 13.6293 12.6588C13.6293 12.5395 13.7286 12.42 13.888 12.42H15.4993C15.7182 12.42 15.7976 12.5393 15.7976 12.7979V14.8364C15.7976 15.0553 15.8969 15.1347 15.9566 15.1347C16.0858 15.1347 16.1954 15.055 16.4339 14.8165C17.1698 13.9912 17.6969 12.7183 17.6969 12.7183C17.7666 12.5691 17.8858 12.43 18.1445 12.43H19.1699C19.4781 12.43 19.5478 12.5891 19.4781 12.8079C19.3489 13.4047 18.0959 15.1748 18.0959 15.1748C17.9866 15.3538 17.9468 15.4335 18.0959 15.6321C18.2052 15.7812 18.5646 16.0894 18.8019 16.3681C19.2396 16.8661 19.5777 17.283 19.6671 17.5713C19.7682 17.8596 19.6187 18.0087 19.3305 18.0087Z" fill="white"/>
</g>
<defs>
<clipPath id="clip0_2_1686">
<rect width="30" height="30" fill="white" transform="translate(-0.000488281)"/>
</clipPath>
</defs>
</svg>
