<svg width="30" height="30" viewBox="0 0 30 30" fill="none" xmlns="http://www.w3.org/2000/svg">
<path d="M15.0007 28.125C22.2495 28.125 28.1257 22.2487 28.1257 15C28.1257 7.75126 22.2495 1.875 15.0007 1.875C7.75199 1.875 1.87573 7.75126 1.87573 15C1.87573 22.2487 7.75199 28.125 15.0007 28.125Z" fill="url(#paint0_linear_2_1695)"/>
<path d="M21.5507 9.57075C21.6675 8.81561 20.9495 8.21958 20.2781 8.51437L6.90525 14.3857C6.42376 14.5972 6.45898 15.3265 6.95836 15.4855L9.71613 16.3638C10.2425 16.5314 10.8124 16.4447 11.2721 16.1272L17.4898 11.8315C17.6773 11.702 17.8817 11.9686 17.7214 12.1337L13.2458 16.7481C12.8117 17.1957 12.8978 17.9542 13.4201 18.2817L18.431 21.424C18.9931 21.7764 19.7161 21.4224 19.8212 20.7432L21.5507 9.57075Z" fill="white"/>
<defs>
<linearGradient id="paint0_linear_2_1695" x1="15.0007" y1="1.875" x2="15.0007" y2="28.125" gradientUnits="userSpaceOnUse">
<stop stop-color="#37BBFE"/>
<stop offset="1" stop-color="#007DBB"/>
</linearGradient>
</defs>
</svg>
